<?xml version="1.0" encoding="UTF-8"?>
<svg width="16px" height="16px" viewBox="0 0 16 16" version="1.1" xmlns="http://www.w3.org/2000/svg" xmlns:xlink="http://www.w3.org/1999/xlink">
    <title>pylinuxauto</title>
    <defs>
        <linearGradient x1="50%" y1="-10.4717632%" x2="50%" y2="100%" id="linearGradient-1">
            <stop stop-color="#6AC900" offset="0%"></stop>
            <stop stop-color="#008989" offset="100%"></stop>
        </linearGradient>
        <linearGradient x1="63.8285579%" y1="-13.3431415%" x2="63.8285579%" y2="161.481369%" id="linearGradient-2">
            <stop stop-color="#FBFEFF" offset="0%"></stop>
            <stop stop-color="#B3FFF1" offset="100%"></stop>
        </linearGradient>
        <linearGradient x1="63.8285579%" y1="-49.6620077%" x2="63.8285579%" y2="161.481369%" id="linearGradient-3">
            <stop stop-color="#FBFEFF" offset="0%"></stop>
            <stop stop-color="#B3FFF1" offset="100%"></stop>
        </linearGradient>
    </defs>
    <g id="pylinuxauto" stroke="none" stroke-width="1" fill="none" fill-rule="evenodd">
        <rect id="矩形" fill="url(#linearGradient-1)" x="1" y="1" width="14" height="14" rx="2.75"></rect>
        <g id="编组-3" transform="translate(3, 3)">
            <path d="M7.19265912,3.81826252 L8.50722171,3.94594595 C9.29332597,4.02230023 9.90801452,4.63594368 10.0019736,5.40198988 L10,6.6875 C10,6.79358655 9.99285644,6.89800464 9.97902411,7.00029946 L6.13316441,7 C6.61190449,7 7,6.61190449 7,6.13316441 L7,3.99311534 L7.00082286,3.97613189 C7.01020256,3.87956335 7.09609058,3.80888282 7.19265912,3.81826252 Z M3.88513514,3 C3.3962885,3 3,3.3962885 3,3.88513514 L3,5.99778554 C3,6.09480854 2.92134732,6.17346122 2.82432432,6.17346122 C2.81862607,6.17346122 2.81293119,6.17318397 2.80725988,6.17263047 L1.5,6.04504505 C0.648993564,5.96198886 -1.17331196e-16,5.24657148 -2.22044605e-16,4.39152161 L0,3.29670745 L0.00533500178,3.15417205 C0.00884971285,3.1021917 0.0140821098,3.05068242 0.0209758947,2.99970054 L3.88513514,3 Z" id="形状结合" fill="#D5E8C0"></path>
            <path d="M8.98118903,0.19274012 L8.8536036,1.5 C8.77054742,2.35100644 8.05513004,3 7.20008017,3 L1.11381129,3.00000432 C0.619836536,3.00136357 0.182743201,3.32019768 0.0305838687,3.7901556 C0.00994330577,3.85209215 0,3.88216344 0,3.88012537 C0,3.80588743 0,3.07646327 0,2.97326218 C0,2.82705587 0.0224290469,2.66930181 0.0672871408,2.5 L0.101795264,2.3335509 C0.383554128,0.974493846 1.58080163,6.99052742e-16 2.96875845,4.4408921e-16 L8.8063441,5.55111512e-17 C8.9033671,3.76883159e-17 8.98201978,0.0786526791 8.98201978,0.175675676 C8.98201978,0.181373931 8.98174253,0.187068812 8.98118903,0.19274012 Z" id="路径" fill="url(#linearGradient-2)"></path>
            <path d="M9.98118903,6.3008151 L9.8536036,7.60807498 C9.77054742,8.45908141 9.05513004,9.10807498 8.20008017,9.10807498 L2.11382401,9.10808013 C1.6094683,9.10959516 1.16584319,9.44181382 1.02247082,9.92536458 C1.00761251,9.97693887 1,10.0017492 1,9.99990423 C1,9.92566629 1,9.29602878 1,9.13842448 C1,8.95376543 1.02135182,8.77704256 1.06405547,8.60825588 L1.09424566,8.45826313 C1.36937651,7.09134118 2.57027188,6.10807498 3.96460778,6.10807498 L9.8063441,6.10807498 C9.9033671,6.10807498 9.98201978,6.18672766 9.98201978,6.28375065 C9.98201978,6.28944891 9.98174253,6.29514379 9.98118903,6.3008151 Z" id="路径" fill="url(#linearGradient-3)" transform="translate(5.5, 8.054) rotate(-180) translate(-5.5, -8.054)"></path>
            <rect id="矩形" fill="#00A165" x="3" y="8" width="1" height="1" rx="0.204954952"></rect>
            <rect id="矩形" fill="#2FA54B" x="6" y="1" width="1" height="1" rx="0.204954952"></rect>
        </g>
    </g>
</svg>